<?xml version="1.0" encoding="UTF-8" standalone="no"?><!DOCTYPE svg PUBLIC "-//W3C//DTD SVG 1.1//EN" "http://www.w3.org/Graphics/SVG/1.1/DTD/svg11.dtd"><svg width="624" height="256" viewBox="0 0 624 256" version="1.1" xmlns="http://www.w3.org/2000/svg" xmlns:xlink="http://www.w3.org/1999/xlink" xml:space="preserve" xmlns:serif="http://www.serif.com/" style="fill-rule:evenodd;clip-rule:evenodd;stroke-linejoin:round;stroke-miterlimit:1.41421;"><rect id="Transformed" x="0" y="0" width="624" height="256" style="fill:none;"/><g><path d="M134.429,216.068l-13.194,23.945l-28.038,0l0,-151.183c0,-5.314 -1.878,-9.85 -5.635,-13.607c-3.757,-3.756 -8.292,-5.635 -13.606,-5.635l-4.124,0c-1.282,0 -2.84,0.184 -4.672,0.55l0,145.96l-1.375,0l-13.194,23.915l-28.038,0l0,-198.432l12.92,-23.116l0,-2.478l29.687,0l0,3.299c2.565,-0.917 5.497,-1.695 8.796,-2.337c3.298,-0.641 6.505,-0.962 9.62,-0.962l4.124,0c6.597,0 12.827,1.239 18.691,3.715c5.864,2.477 10.995,5.917 15.393,10.321c4.398,4.404 7.834,9.496 10.308,15.275c2.474,5.78 3.711,11.972 3.711,18.578l0,152.192l-1.374,0Zm-3.024,-48.125l0,-104.028c0,-6.053 -1.145,-11.695 -3.436,-16.925c-2.29,-5.229 -5.406,-9.816 -9.346,-13.761c-3.94,-3.944 -8.567,-7.061 -13.881,-9.352c-5.314,-2.291 -10.995,-3.436 -17.042,-3.436l-4.124,0c-8.429,0 -16.034,2.107 -22.815,6.322l0,-6.322l-20.89,0l0,191.259l20.89,0l0,-43.705l0,-14.569l0,-66.245l0,-16.768l0,-6.322c0,-6.231 2.2,-11.591 6.598,-16.081c4.398,-4.489 9.804,-6.734 16.217,-6.734l4.124,0c6.413,0 11.819,2.245 16.217,6.734c4.398,4.49 6.597,9.85 6.597,16.081l0,147.609l20.891,0l0,-43.757Z" style="fill:#00d1b2;fill-rule:nonzero;"/><path d="M241.631,214.174l-0.55,1.375l0.55,-1.375Zm10.995,-19.791c0.367,-0.366 0.733,-0.916 1.1,-1.649l-1.1,1.649Zm-57.174,-124.795c-1.283,0 -2.841,0.184 -4.673,0.55l0,97.857c0,5.131 1.786,9.483 5.36,13.056c3.573,3.574 7.926,5.361 13.057,5.361l4.123,0c1.649,0 3.482,-0.275 5.497,-0.825l0,-96.757c0,-5.314 -1.878,-9.85 -5.635,-13.607c-3.756,-3.756 -8.292,-5.635 -13.606,-5.635l-4.123,0Zm65.97,98.317c0,11.928 -3.756,22.203 -11.27,30.825l0,0.274l-4.398,7.985l-3.848,7.155l0,-0.275l-0.275,0.275l0.275,0l-0.825,1.375c-4.031,7.338 -9.712,13.255 -17.042,17.751c-7.33,4.495 -15.485,6.743 -24.464,6.743l-4.123,0c-6.597,0 -12.736,-1.239 -18.417,-3.715c-5.681,-2.477 -10.675,-5.872 -14.981,-10.184c-4.306,-4.312 -7.697,-9.312 -10.17,-15c-2.474,-5.688 -3.711,-11.835 -3.711,-18.44l0,-104.029c0,-8.258 1.924,-15.873 5.772,-22.845l9.621,-17.613c3.298,-9.358 9.071,-17.064 17.317,-23.118c8.247,-6.055 17.684,-9.082 28.313,-9.082l4.123,0c6.597,0 12.827,1.239 18.691,3.715c5.865,2.477 10.996,5.917 15.394,10.321c4.398,4.404 7.834,9.496 10.308,15.275c2.473,5.78 3.71,11.972 3.71,18.578l0,104.029Zm-25.288,0.09c0,6.414 -2.199,11.82 -6.597,16.218c-4.398,4.398 -9.804,6.597 -16.218,6.597l-4.123,0c-6.414,0 -11.82,-2.199 -16.218,-6.597c-4.398,-4.398 -6.597,-9.804 -6.597,-16.218l0,-6.322l0,-16.493l0,-81.089c0,-6.414 2.199,-11.82 6.597,-16.218c4.398,-4.398 9.804,-6.597 16.218,-6.597l4.123,0c6.414,0 11.82,2.199 16.218,6.597c4.398,4.398 6.597,9.804 6.597,16.218l0,103.904Zm20.89,-22.815l0,-62.397l0,-4.124l0,-14.568c0,-6.047 -1.145,-11.682 -3.436,-16.905c-2.29,-5.223 -5.406,-9.804 -9.345,-13.744c-3.94,-3.94 -8.567,-7.055 -13.882,-9.346c-5.314,-2.291 -10.995,-3.436 -17.042,-3.436l-4.123,0c-6.048,0 -11.729,1.145 -17.043,3.436c-5.314,2.291 -9.941,5.406 -13.881,9.346c-3.94,3.94 -7.055,8.521 -9.346,13.744c-2.291,5.223 -3.436,10.858 -3.436,16.905l0,103.904c0,6.047 1.145,11.728 3.436,17.042c2.291,5.314 5.406,9.942 9.346,13.882c3.94,3.939 8.567,7.055 13.881,9.345c5.314,2.291 10.995,3.436 17.043,3.436l4.123,0c6.047,0 11.728,-1.145 17.042,-3.436c5.315,-2.29 9.942,-5.406 13.882,-9.345c3.939,-3.94 7.055,-8.568 9.345,-13.882c2.291,-5.314 3.436,-10.995 3.436,-17.042l0,-22.815Z" style="fill:#00d1b2;fill-rule:nonzero;"/><path d="M347.734,144.905l0,23.09c0,6.23 -2.199,11.59 -6.597,16.08c-4.398,4.49 -9.804,6.735 -16.218,6.735l-23.364,0l0,-29.137l0,-16.768l0,-24.739l0,-20.891l0,-35.184l0,-22.815l23.364,0c6.414,0 11.82,2.199 16.218,6.597c4.398,4.398 6.597,9.804 6.597,16.218l0,80.814Zm-47.829,-124.52l-19.241,0l0,191.04l44.255,0c6.048,0 11.728,-1.145 17.043,-3.435c5.314,-2.291 9.941,-5.406 13.881,-9.346c3.94,-3.94 7.055,-8.522 9.346,-13.744c2.291,-5.223 3.436,-10.858 3.436,-16.905l0,-23.09l0,-62.122l0,-4.124l0,-14.568c0,-6.047 -1.145,-11.728 -3.436,-17.043c-2.291,-5.314 -5.406,-9.941 -9.346,-13.881c-3.94,-3.94 -8.567,-7.055 -13.881,-9.346c-5.315,-2.29 -10.995,-3.436 -17.043,-3.436l-25.014,0Zm25.014,-4.398c6.597,0 12.828,1.237 18.692,3.711c5.864,2.474 10.995,5.91 15.393,10.308c4.398,4.398 7.834,9.529 10.308,15.393c2.474,5.864 3.711,12.095 3.711,18.692l0,103.904c0,5.864 -0.962,11.316 -2.886,16.355c-1.924,5.039 -4.536,9.667 -7.834,13.881l-4.948,8.796l-3.848,7.147l0,-0.275l-0.275,0.275l0.275,0l-0.825,1.375c-4.032,7.33 -9.712,13.194 -17.042,17.592c-7.331,4.398 -15.485,6.597 -24.465,6.597l-47.828,0l0,-198.187l12.919,-23.09l0,-2.474l48.653,0Zm-18.966,53.601l0,116.549l18.966,0c1.65,0 3.482,-0.275 5.498,-0.825l0,-96.529c0,-5.3 -1.879,-9.824 -5.635,-13.572c-3.757,-3.749 -8.292,-5.623 -13.607,-5.623l-5.222,0Zm59.373,123.146c-0.366,0.366 -0.549,0.733 -0.549,1.099l0.549,-1.099Zm-12.094,21.44l-0.55,1.375l0.55,-1.375Z" style="fill:#00d1b2;fill-rule:nonzero;"/><path d="M478.576,215.824l-1.374,0l-13.194,23.914l-81.914,0l0,-198.187l12.919,-23.09l0,-2.474l83.563,0l0,29.562l-1.374,0l-13.194,24.039l-39.308,0l0,25.014l53.876,0l0,29.563l-1.374,0l-13.194,24.039l-39.308,0l0,37.933l53.876,0l0,29.687Zm-4.398,-25.289l-53.876,0l0,-29.137l0,-16.493l0,-25.014l53.876,0l0,-20.341l-53.876,0l0,-35.459l0,-22.815l53.876,0l0,-20.616l-26.938,0l-2.199,0l-1.924,0l-43.706,0l0,190.765l74.767,0l0,-20.89Z" style="fill:#00d1b2;fill-rule:nonzero;"/><path d="M581.655,214.174l-0.549,1.375l0.549,-1.375Zm10.995,-19.791c0.367,-0.366 0.733,-0.916 1.1,-1.649l-1.1,1.649Zm-57.174,-124.795c-1.283,0 -2.841,0.184 -4.673,0.55l0,97.857c0,5.131 1.787,9.483 5.36,13.056c3.573,3.574 7.926,5.361 13.057,5.361l4.123,0c1.649,0 3.482,-0.275 5.497,-0.825l0,-96.757c0,-5.314 -1.878,-9.85 -5.635,-13.607c-3.756,-3.756 -8.292,-5.635 -13.606,-5.635l-4.123,0Zm65.971,98.317c0,11.928 -3.757,22.203 -11.27,30.825l0,0.274l-4.398,7.985l-3.849,7.155l0,-0.275l-0.275,0.275l0.275,0l-0.824,1.375c-4.032,7.338 -9.713,13.255 -17.043,17.751c-7.33,4.495 -15.485,6.743 -24.464,6.743l-4.123,0c-6.597,0 -12.736,-1.239 -18.417,-3.715c-5.681,-2.477 -10.674,-5.872 -14.981,-10.184c-4.306,-4.312 -7.696,-9.312 -10.17,-15c-2.474,-5.688 -3.711,-11.835 -3.711,-18.44l0,-104.029c0,-8.258 1.924,-15.873 5.772,-22.845l9.621,-17.613c3.299,-9.358 9.071,-17.064 17.317,-23.118c8.247,-6.055 17.684,-9.082 28.313,-9.082l4.123,0c6.597,0 12.828,1.239 18.692,3.715c5.864,2.477 10.995,5.917 15.393,10.321c4.398,4.404 7.834,9.496 10.308,15.275c2.474,5.78 3.711,11.972 3.711,18.578l0,104.029Zm-25.289,0.09c0,6.414 -2.199,11.82 -6.597,16.218c-4.398,4.398 -9.804,6.597 -16.218,6.597l-4.123,0c-6.414,0 -11.82,-2.199 -16.218,-6.597c-4.398,-4.398 -6.597,-9.804 -6.597,-16.218l0,-6.322l0,-16.493l0,-81.089c0,-6.414 2.199,-11.82 6.597,-16.218c4.398,-4.398 9.804,-6.597 16.218,-6.597l4.123,0c6.414,0 11.82,2.199 16.218,6.597c4.398,4.398 6.597,9.804 6.597,16.218l0,103.904Zm20.891,-22.815l0,-62.397l0,-4.124l0,-14.568c0,-6.047 -1.146,-11.682 -3.436,-16.905c-2.291,-5.223 -5.406,-9.804 -9.346,-13.744c-3.94,-3.94 -8.567,-7.055 -13.882,-9.346c-5.314,-2.291 -10.995,-3.436 -17.042,-3.436l-4.123,0c-6.048,0 -11.728,1.145 -17.043,3.436c-5.314,2.291 -9.941,5.406 -13.881,9.346c-3.94,3.94 -7.055,8.521 -9.346,13.744c-2.291,5.223 -3.436,10.858 -3.436,16.905l0,103.904c0,6.047 1.145,11.728 3.436,17.042c2.291,5.314 5.406,9.942 9.346,13.882c3.94,3.939 8.567,7.055 13.881,9.345c5.315,2.291 10.995,3.436 17.043,3.436l4.123,0c6.047,0 11.728,-1.145 17.042,-3.436c5.315,-2.29 9.942,-5.406 13.882,-9.345c3.94,-3.94 7.055,-8.568 9.346,-13.882c2.29,-5.314 3.436,-10.995 3.436,-17.042l0,-22.815Z" style="fill:#00d1b2;fill-rule:nonzero;"/></g></svg>